<svg width="225" height="216" viewBox="0 0 225 216" fill="none" xmlns="http://www.w3.org/2000/svg">
<path d="M208 108C208 163.228 163.228 208 108 208C52.7715 208 7.99998 163.228 7.99998 108C7.99998 52.7715 52.7715 8 108 8C163.228 8 208 52.7715 208 108Z" fill="url(#paint0_radial_206_54)"/>
<path d="M7.57812 181.643L116.75 74.6437M106.106 74.5067L219.666 180.066M208 108C208 163.228 163.228 208 108 208C52.7715 208 7.99998 163.228 7.99998 108C7.99998 52.7715 52.7715 8 108 8C163.228 8 208 52.7715 208 108Z" stroke="white" stroke-width="15"/>
<defs>
<radialGradient id="paint0_radial_206_54" cx="0" cy="0" r="1" gradientUnits="userSpaceOnUse" gradientTransform="translate(28.7869 49) rotate(41.0711) scale(203.959 202.673)">
<stop stop-color="#EF7D2B"/>
<stop offset="0.435959" stop-color="#C6696F"/>
<stop offset="1" stop-color="#6A46CE"/>
</radialGradient>
</defs>
</svg>
